{
	"asset":{
		"generator":"Khronos glTF Blender I/O v4.2.57",
		"version":"2.0"
	},
	"extensionsUsed":[
		"KHR_materials_emissive_strength",
		"KHR_materials_specular",
		"KHR_materials_sheen",
		"KHR_materials_ior"
	],
	"scene":0,
	"scenes":[
		{
			"name":"Scene",
			"nodes":[
				0,
				1,
				2,
				3,
				4
			]
		}
	],
	"nodes":[
		{
			"mesh":0,
			"name":"Male",
			"rotation":[
				0.5032029747962952,
				-0.4967764616012573,
				0.49677643179893494,
				0.5032030344009399
			],
			"translation":[
				0.351406991481781,
				0,
				0.004344820976257324
			]
		},
		{
			"mesh":1,
			"name":"Text",
			"rotation":[
				0.7070922255516052,
				0.004544304218143225,
				-0.004544304683804512,
				0.7070922255516052
			],
			"translation":[
				0.09302377700805664,
				0.5555968284606934,
				1.4614170789718628
			]
		},
		{
			"mesh":2,
			"name":"Cone.001",
			"rotation":[
				-0.4967764616012573,
				-0.49677643179893494,
				0.5032029151916504,
				0.5032029747962952
			],
			"scale":[
				0.6087754368782043,
				0.6087753772735596,
				0.6087753772735596
			],
			"translation":[
				0.3035973310470581,
				0.9030478000640869,
				0.8447582125663757
			]
		},
		{
			"name":"Empty",
			"translation":[
				-0.0214349627494812,
				0,
				-0.026959002017974854
			]
		},
		{
			"mesh":3,
			"name":"Text.004",
			"rotation":[
				0.5,
				-0.5,
				0.5,
				0.5
			],
			"scale":[
				0.5413673520088196,
				0.5413673520088196,
				0.5413673520088196
			],
			"translation":[
				0.25702571868896484,
				2.534274101257324,
				0
			]
		}
	],
	"materials":[
		{
			"doubleSided":true,
			"extensions":{
				"KHR_materials_specular":{
					"specularColorFactor":[
						1.0272727012634277,
						1.0272727012634277,
						1.0272727012634277
					]
				},
				"KHR_materials_sheen":{
					"sheenColorFactor":[
						1.0,
						1.0,
						1.0
					],
					"sheenRoughnessFactor":0.4636363685131073
				},
				"KHR_materials_ior":{
					"ior":1
				}
			},
			"name":"Material.002",
			"pbrMetallicRoughness":{
				"baseColorFactor":[
					0.6883516311645508,
					0.6941612958908081,
					0.7333000302314758,
					1
				],
				"metallicFactor":0.9886363744735718,
				"roughnessFactor":0.054545432329177856
			}
		},
		{
			"doubleSided":true,
			"emissiveFactor":[
				0.6188009918176897,
				0.825828425392409,
				1
			],
			"extensions":{
				"KHR_materials_emissive_strength":{
					"emissiveStrength":4.239534616470337
				}
			},
			"name":"Material.001",
			"pbrMetallicRoughness":{
				"baseColorFactor":[
					0.2787075340747833,
					0.623794436454773,
					0.7523469924926758,
					1
				],
				"metallicFactor":0.8136363625526428,
				"roughnessFactor":0.059091001749038696
			}
		},
		{
			"doubleSided":true,
			"name":"Material.003",
			"pbrMetallicRoughness":{
				"baseColorFactor":[
					0.23070453107357025,
					0.298714280128479,
					0.409460186958313,
					1
				],
				"metallicFactor":0.9136363863945007,
				"roughnessFactor":0.22272726893424988
			}
		},
		{
			"doubleSided":true,
			"name":"Material.004",
			"pbrMetallicRoughness":{
				"baseColorFactor":[
					0.23070453107357025,
					0.298714280128479,
					0.409460186958313,
					1
				],
				"metallicFactor":0.9136363863945007,
				"roughnessFactor":0.22272726893424988
			}
		}
	],
	"meshes":[
		{
			"name":"Male",
			"primitives":[
				{
					"attributes":{
						"POSITION":0,
						"NORMAL":1
					},
					"indices":2,
					"material":0
				}
			]
		},
		{
			"name":"Text",
			"primitives":[
				{
					"attributes":{
						"POSITION":3,
						"NORMAL":4,
						"TEXCOORD_0":5
					},
					"indices":6,
					"material":1
				}
			]
		},
		{
			"name":"Cone.001",
			"primitives":[
				{
					"attributes":{
						"POSITION":7,
						"NORMAL":8,
						"TEXCOORD_0":9
					},
					"indices":10,
					"material":2
				}
			]
		},
		{
			"name":"Text.004",
			"primitives":[
				{
					"attributes":{
						"POSITION":11,
						"NORMAL":12,
						"TEXCOORD_0":13
					},
					"indices":14,
					"material":3
				}
			]
		}
	],
	"accessors":[
		{
			"bufferView":0,
			"componentType":5126,
			"count":2820218,
			"max":[
				1.8897877931594849,
				0.8114060163497925,
				5.551300525665283
			],
			"min":[
				-1.8897793292999268,
				-0.48165997862815857,
				-1.4783804416656494
			],
			"type":"VEC3"
		},
		{
			"bufferView":1,
			"componentType":5126,
			"count":2820218,
			"type":"VEC3"
		},
		{
			"bufferView":2,
			"componentType":5125,
			"count":4231212,
			"type":"SCALAR"
		},
		{
			"bufferView":3,
			"componentType":5126,
			"count":731,
			"max":[
				0.43596985936164856,
				0,
				0.005649839527904987
			],
			"min":[
				0.0075431764125823975,
				-2.881483316421509,
				-0.6939736008644104
			],
			"type":"VEC3"
		},
		{
			"bufferView":4,
			"componentType":5126,
			"count":731,
			"type":"VEC3"
		},
		{
			"bufferView":5,
			"componentType":5126,
			"count":731,
			"type":"VEC2"
		},
		{
			"bufferView":6,
			"componentType":5123,
			"count":2160,
			"type":"SCALAR"
		},
		{
			"bufferView":7,
			"componentType":5126,
			"count":130,
			"max":[
				1,
				3.7116079330444336,
				1
			],
			"min":[
				-1,
				-1,
				-1
			],
			"type":"VEC3"
		},
		{
			"bufferView":8,
			"componentType":5126,
			"count":130,
			"type":"VEC3"
		},
		{
			"bufferView":9,
			"componentType":5126,
			"count":130,
			"type":"VEC2"
		},
		{
			"bufferView":10,
			"componentType":5123,
			"count":372,
			"type":"SCALAR"
		},
		{
			"bufferView":11,
			"componentType":5126,
			"count":4154,
			"max":[
				1.7227364778518677,
				0.019999999552965164,
				1.4000000953674316
			],
			"min":[
				-1.733311414718628,
				-0.019999999552965164,
				-0.4461335241794586
			],
			"type":"VEC3"
		},
		{
			"bufferView":12,
			"componentType":5126,
			"count":4154,
			"type":"VEC3"
		},
		{
			"bufferView":13,
			"componentType":5126,
			"count":4154,
			"type":"VEC2"
		},
		{
			"bufferView":14,
			"componentType":5123,
			"count":12180,
			"type":"SCALAR"
		}
	],
	"bufferViews":[
		{
			"buffer":0,
			"byteLength":33842616,
			"byteOffset":0,
			"target":34962
		},
		{
			"buffer":0,
			"byteLength":33842616,
			"byteOffset":33842616,
			"target":34962
		},
		{
			"buffer":0,
			"byteLength":16924848,
			"byteOffset":67685232,
			"target":34963
		},
		{
			"buffer":0,
			"byteLength":8772,
			"byteOffset":84610080,
			"target":34962
		},
		{
			"buffer":0,
			"byteLength":8772,
			"byteOffset":84618852,
			"target":34962
		},
		{
			"buffer":0,
			"byteLength":5848,
			"byteOffset":84627624,
			"target":34962
		},
		{
			"buffer":0,
			"byteLength":4320,
			"byteOffset":84633472,
			"target":34963
		},
		{
			"buffer":0,
			"byteLength":1560,
			"byteOffset":84637792,
			"target":34962
		},
		{
			"buffer":0,
			"byteLength":1560,
			"byteOffset":84639352,
			"target":34962
		},
		{
			"buffer":0,
			"byteLength":1040,
			"byteOffset":84640912,
			"target":34962
		},
		{
			"buffer":0,
			"byteLength":744,
			"byteOffset":84641952,
			"target":34963
		},
		{
			"buffer":0,
			"byteLength":49848,
			"byteOffset":84642696,
			"target":34962
		},
		{
			"buffer":0,
			"byteLength":49848,
			"byteOffset":84692544,
			"target":34962
		},
		{
			"buffer":0,
			"byteLength":33232,
			"byteOffset":84742392,
			"target":34962
		},
		{
			"buffer":0,
			"byteLength":24360,
			"byteOffset":84775624,
			"target":34963
		}
	],
	"buffers":[
		{
			"byteLength":84799984,
			"uri":"coneman.bin"
		}
	]
}
