<?xml version="1.0" standalone="no"?>
<!DOCTYPE svg PUBLIC "-//W3C//DTD SVG 20010904//EN"
 "http://www.w3.org/TR/2001/REC-SVG-20010904/DTD/svg10.dtd">
<svg version="1.0" xmlns="http://www.w3.org/2000/svg"
 width="300.000000pt" height="169.000000pt" viewBox="0 0 300.000000 169.000000"
 preserveAspectRatio="xMidYMid meet">
<metadata>
Created by potrace 1.10, written by Peter Selinger 2001-2011
</metadata>
<g transform="translate(0.000000,169.000000) scale(0.100000,-0.100000)"
fill="#000000" stroke="none">
<path d="M1295 1473 c-106 -22 -198 -99 -235 -193 -7 -19 -17 -40 -22 -47 -5
-7 -10 -43 -11 -82 -1 -55 2 -74 17 -90 13 -15 17 -29 13 -51 -6 -26 -4 -30
16 -30 12 0 32 -3 45 -6 35 -10 27 20 -10 37 -32 13 -33 16 -33 69 1 74 26
123 73 144 40 18 196 25 267 12 47 -8 59 -27 76 -122 6 -32 19 -68 30 -80 11
-11 24 -48 30 -82 12 -66 24 -77 39 -38 5 13 14 27 19 31 6 3 11 11 11 18 0 6
-7 2 -15 -9 -8 -10 -15 -14 -15 -7 0 19 31 44 49 39 9 -3 23 -1 31 5 12 8 9 9
-10 4 -14 -3 1 8 34 25 61 33 71 34 60 6 -4 -10 -18 -16 -38 -17 l-31 -1 30
-7 c24 -5 31 -12 33 -35 2 -16 -2 -32 -8 -36 -6 -4 -12 -22 -12 -41 0 -24 -12
-48 -40 -82 -28 -33 -41 -60 -43 -85 -2 -20 -7 -61 -11 -90 -6 -46 -3 -60 24
-115 43 -87 78 -117 159 -138 37 -10 69 -16 72 -14 4 5 -35 29 -119 73 -62 33
-93 76 -111 159 -10 45 -10 55 5 78 10 15 23 24 30 22 7 -3 166 -118 355 -257
188 -138 345 -250 347 -247 3 3 -88 74 -203 158 -114 84 -259 190 -320 236
-62 46 -128 93 -148 104 -33 20 -43 38 -29 52 10 10 49 128 63 192 7 33 17 73
22 89 26 84 1 199 -57 261 -13 14 -24 30 -24 36 0 5 -6 12 -14 15 -7 3 -37 28
-67 57 -67 64 -125 86 -229 85 -41 0 -84 -2 -95 -5z m237 -61 c54 -27 168
-143 198 -203 15 -29 20 -55 18 -92 l-3 -52 -74 -37 c-41 -21 -78 -43 -82 -49
-7 -12 -10 -9 -44 56 -30 55 -39 95 -23 96 10 0 10 2 1 6 -7 2 -13 12 -13 22
0 78 -86 117 -249 112 -78 -2 -108 -10 -150 -40 -26 -19 -27 -19 -28 0 -1 10
3 21 8 24 5 4 7 11 4 16 -4 5 1 12 10 15 10 4 13 13 10 25 -4 13 -1 19 9 19 8
0 17 8 21 19 8 26 75 70 113 75 18 2 35 5 37 8 2 2 46 4 97 3 75 0 102 -5 140
-23z"/>
<path d="M2186 1270 c-353 -172 -409 -201 -359 -186 21 7 429 203 561 270 l53
27 -42 -61 c-180 -264 -188 -814 -15 -1088 14 -22 23 -42 20 -45 -6 -6 78 -68
123 -91 18 -9 53 -16 79 -16 269 0 439 564 308 1018 -65 224 -178 352 -310
352 -44 0 -92 -21 -418 -180z m492 155 c156 -66 266 -339 265 -660 0 -477
-230 -794 -456 -629 -87 64 -151 185 -190 364 -17 77 -21 129 -21 270 0 155 3
187 27 282 48 194 123 319 220 364 60 28 103 30 155 9z"/>
<path d="M2563 863 c-7 -2 -13 -14 -13 -26 0 -20 1 -20 13 -3 16 22 50 18 55
-7 2 -9 -8 -31 -22 -47 -16 -19 -23 -37 -19 -47 5 -14 8 -14 11 -2 3 7 18 29
33 47 16 18 29 39 29 47 0 33 -48 54 -87 38z"/>
<path d="M2577 694 c-9 -10 2 -24 19 -24 8 0 14 7 14 15 0 15 -21 21 -33 9z"/>
<path d="M252 1349 c-80 -40 -148 -150 -189 -306 -33 -128 -38 -342 -10 -472
43 -199 128 -330 238 -362 71 -22 91 -11 446 247 185 136 342 248 347 249 6 2
36 -47 66 -108 49 -99 59 -113 88 -122 54 -16 40 -37 -58 -85 -49 -24 -88 -45
-87 -47 9 -8 174 45 185 59 10 14 17 16 33 7 11 -5 25 -8 32 -5 7 2 6 5 -4 5
-9 1 -21 12 -27 25 -10 23 -8 25 51 46 34 12 66 26 71 31 5 4 -23 -3 -61 -16
-64 -23 -74 -24 -109 -12 -39 14 -68 55 -89 126 l-7 24 66 -6 c76 -7 88 3 21
19 -31 7 -46 7 -48 0 -3 -7 -9 -7 -19 1 -8 7 -18 10 -22 6 -4 -4 -22 10 -41
32 l-33 40 -32 -19 c-18 -10 -79 -53 -137 -95 -58 -42 -115 -83 -126 -91 -12
-8 -74 -53 -137 -99 -63 -46 -131 -95 -150 -109 -19 -14 -37 -29 -40 -32 -17
-22 -102 -60 -134 -60 -108 0 -205 116 -258 306 -30 110 -32 381 -4 494 37
148 114 278 187 316 49 25 147 13 171 -21 4 -5 8 -7 8 -3 0 4 49 -17 110 -47
60 -30 112 -55 114 -55 2 0 73 -33 157 -74 157 -75 199 -92 199 -81 0 3 -33
21 -72 39 -40 19 -149 71 -243 116 -363 175 -373 178 -453 139z"/>
<path d="M1276 1017 c-22 -7 -41 -18 -43 -24 -3 -9 21 -11 99 -6 57 3 105 7
106 9 2 1 -10 10 -27 18 -35 19 -80 19 -135 3z"/>
<path d="M1071 908 c0 -24 3 -37 6 -30 7 17 83 16 83 -1 0 -7 -4 -17 -9 -22
-5 -6 -12 -35 -15 -65 -7 -55 -6 -55 8 -23 23 49 37 139 26 166 -5 12 -9 20
-10 17 -1 -3 -3 -13 -5 -23 -2 -11 -6 -21 -9 -24 -9 -9 -38 6 -31 17 3 5 -1
10 -9 10 -9 0 -16 5 -16 10 0 6 -4 10 -10 10 -5 0 -10 -19 -9 -42z"/>
<path d="M1295 919 c6 -16 4 -20 -6 -14 -8 5 -11 4 -6 0 4 -5 17 -10 28 -12
17 -3 19 1 14 18 -7 20 -5 22 29 16 20 -3 36 -2 36 4 0 5 -23 9 -51 9 -47 0
-50 -1 -44 -21z"/>
<path d="M276 854 c-22 -21 -14 -29 13 -12 18 11 23 10 38 -5 12 -12 15 -21 8
-31 -44 -60 -48 -67 -36 -79 8 -8 11 -7 11 7 0 10 14 34 31 53 27 32 29 37 16
56 -18 28 -59 33 -81 11z"/>
<path d="M1570 838 c0 -17 11 -39 28 -56 15 -15 21 -20 14 -11 -8 10 -20 35
-28 56 -12 34 -13 35 -14 11z"/>
<path d="M1210 796 c0 -8 14 -19 30 -25 35 -12 40 1 8 23 -28 20 -38 20 -38 2z"/>
<path d="M1160 735 c14 -17 13 -18 -3 -12 -11 4 -16 3 -12 -3 3 -6 13 -10 21
-10 20 0 14 32 -6 38 -13 5 -13 3 0 -13z"/>
<path d="M1195 740 c-4 -6 5 -10 20 -10 15 0 24 4 20 10 -3 6 -12 10 -20 10
-8 0 -17 -4 -20 -10z"/>
<path d="M292 688 c5 -15 28 -18 29 -3 0 6 -7 12 -17 13 -10 3 -15 -1 -12 -10z"/>
<path d="M1585 643 c-3 -15 -14 -37 -23 -48 -17 -20 -17 -20 5 -2 20 17 39 64
30 74 -3 2 -8 -9 -12 -24z"/>
<path d="M1210 585 c33 -19 50 -18 26 0 -11 8 -27 15 -35 15 -10 -1 -7 -6 9
-15z"/>
</g>
</svg>
