<?xml version="1.0" standalone="no"?>
<!DOCTYPE svg PUBLIC "-//W3C//DTD SVG 20010904//EN"
 "http://www.w3.org/TR/2001/REC-SVG-20010904/DTD/svg10.dtd">
<svg version="1.0" xmlns="http://www.w3.org/2000/svg"
 width="300.000000pt" height="169.000000pt" viewBox="0 0 300.000000 169.000000"
 preserveAspectRatio="xMidYMid meet">
<metadata>
Created by potrace 1.10, written by Peter Selinger 2001-2011
</metadata>
<g transform="translate(0.000000,169.000000) scale(0.100000,-0.100000)"
fill="#000000" stroke="none">
<path d="M0 845 l0 -845 1500 0 1500 0 0 845 0 845 -1500 0 -1500 0 0 -845z
m1515 617 c32 -11 69 -35 104 -69 30 -29 60 -54 67 -57 8 -3 14 -10 14 -15 0
-6 11 -22 24 -36 58 -62 83 -177 57 -261 -5 -16 -15 -56 -22 -89 -14 -64 -53
-182 -63 -192 -14 -14 -4 -32 29 -52 20 -11 86 -58 148 -104 61 -46 206 -152
320 -236 115 -84 206 -155 203 -158 -2 -3 -159 109 -347 247 -189 139 -348
254 -355 257 -7 2 -20 -7 -30 -22 -15 -23 -15 -33 -5 -78 18 -83 49 -126 111
-159 84 -44 123 -68 119 -73 -3 -2 -35 4 -72 14 -81 21 -116 51 -159 138 -27
55 -30 69 -24 115 4 29 9 70 11 90 2 25 15 52 43 85 28 34 40 58 40 82 0 19 6
37 12 41 6 4 10 20 8 36 -2 23 -9 30 -33 35 l-30 7 31 1 c20 1 34 7 38 17 11
28 1 27 -60 -6 -33 -17 -48 -28 -34 -25 19 5 22 4 10 -4 -8 -6 -22 -8 -31 -5
-18 5 -49 -20 -49 -39 0 -7 7 -3 15 7 8 11 15 15 15 9 0 -7 -5 -15 -11 -18 -5
-4 -14 -18 -19 -31 -15 -39 -27 -28 -39 38 -6 34 -19 71 -30 82 -11 12 -24 48
-30 80 -17 95 -29 114 -76 122 -71 13 -227 6 -267 -12 -47 -21 -72 -70 -73
-144 0 -53 1 -56 33 -69 37 -17 45 -47 10 -37 -13 3 -33 6 -45 6 -20 0 -22 4
-16 30 4 22 0 36 -13 51 -15 16 -18 35 -17 90 1 39 6 75 11 82 5 7 15 28 22
47 37 94 129 171 235 193 50 11 173 5 220 -11z m1182 -33 c161 -78 278 -404
260 -729 -19 -358 -167 -620 -351 -620 -26 0 -61 7 -79 16 -45 23 -129 85
-123 91 3 3 -6 23 -20 45 -142 224 -167 666 -55 954 16 40 47 100 70 134 l42
61 -53 -27 c-132 -67 -540 -263 -561 -270 -50 -15 6 14 359 186 408 199 420
203 511 159z m-2248 -98 c47 -22 163 -76 256 -121 94 -45 203 -97 243 -116 39
-18 72 -36 72 -39 0 -11 -42 6 -199 81 -84 41 -155 74 -157 74 -2 0 -54 25
-114 55 -61 30 -110 51 -110 47 0 -4 -4 -2 -8 3 -24 34 -122 46 -171 21 -73
-38 -150 -168 -187 -316 -28 -113 -26 -384 4 -494 53 -190 150 -306 258 -306
32 0 117 38 134 60 3 3 21 18 40 32 19 14 87 63 150 109 63 46 125 91 137 99
11 8 68 49 126 91 58 42 119 85 137 95 l32 19 33 -40 c19 -22 37 -36 41 -32 4
4 14 1 22 -6 10 -8 16 -8 19 -1 2 7 17 7 48 0 67 -16 55 -26 -21 -19 l-66 6 7
-24 c21 -71 50 -112 89 -126 35 -12 45 -11 109 12 38 13 66 20 61 16 -5 -5
-37 -19 -71 -31 -59 -21 -61 -23 -51 -46 6 -13 18 -24 27 -25 10 0 11 -3 4 -5
-7 -3 -21 0 -32 5 -16 9 -23 7 -33 -7 -11 -14 -176 -67 -185 -59 -1 2 38 23
87 47 98 48 112 69 58 85 -29 9 -39 23 -88 122 -30 61 -60 110 -66 108 -5 -1
-162 -113 -347 -249 -355 -258 -375 -269 -446 -247 -110 32 -195 163 -238 362
-28 130 -23 344 10 472 41 156 109 266 189 306 61 30 98 26 197 -18z m962
-317 c17 -8 29 -17 27 -18 -1 -2 -49 -6 -106 -9 -78 -5 -102 -3 -99 6 4 14 70
35 115 36 18 1 47 -6 63 -15z m-321 -74 c0 -5 7 -10 16 -10 8 0 12 -5 9 -10
-7 -11 22 -26 31 -17 3 3 7 13 9 24 2 10 4 20 5 23 1 3 5 -5 10 -17 11 -27 -3
-117 -26 -166 -14 -32 -15 -32 -8 23 3 30 10 59 15 65 5 5 9 15 9 22 0 17 -76
18 -83 1 -3 -7 -6 6 -6 30 -1 23 4 42 9 42 6 0 10 -4 10 -10z m300 -9 c0 -6
-16 -7 -36 -4 -34 6 -36 4 -29 -16 5 -17 3 -21 -14 -18 -11 2 -24 7 -28 12 -5
4 -2 5 6 0 10 -6 12 -2 6 14 -6 20 -3 21 44 21 28 0 51 -4 51 -9z m-1033 -88
c13 -19 11 -24 -16 -56 -17 -19 -31 -43 -31 -53 0 -14 -3 -15 -11 -7 -12 12
-8 19 36 79 7 10 4 19 -8 31 -15 15 -20 16 -38 5 -27 -17 -35 -9 -13 12 22 22
63 17 81 -11z m1255 -72 c7 -9 1 -4 -14 11 -17 17 -28 39 -28 56 1 24 2 23 14
-11 8 -21 20 -46 28 -56z m-364 23 c32 -22 27 -35 -8 -23 -16 6 -30 17 -30 25
0 18 10 18 38 -2z m-70 -67 c4 -18 -23 -24 -33 -7 -4 6 1 7 12 3 16 -6 17 -5
3 12 -13 16 -13 18 0 13 8 -2 16 -12 18 -21z m57 13 c4 -6 -5 -10 -20 -10 -15
0 -24 4 -20 10 3 6 12 10 20 10 8 0 17 -4 20 -10z m-914 -55 c-1 -15 -24 -12
-29 3 -3 9 2 13 12 10 10 -1 17 -7 17 -13z m1274 -48 c-4 -14 -17 -34 -28 -44
-22 -18 -22 -18 -5 2 9 11 20 33 23 48 4 15 9 26 12 24 2 -3 1 -16 -2 -30z
m-359 -52 c24 -18 7 -19 -26 0 -16 9 -19 14 -9 15 8 0 24 -7 35 -15z"/>
<path d="M1295 1432 c-2 -3 -19 -6 -37 -8 -38 -5 -105 -49 -113 -75 -4 -11
-13 -19 -21 -19 -10 0 -13 -6 -9 -19 3 -12 0 -21 -10 -25 -9 -3 -14 -10 -10
-15 3 -5 1 -12 -4 -16 -5 -3 -9 -14 -8 -24 1 -19 2 -19 28 0 42 30 72 38 150
40 163 5 249 -34 249 -112 0 -10 6 -20 13 -22 9 -4 9 -6 -1 -6 -16 -1 -7 -41
23 -96 34 -65 37 -68 44 -56 4 6 41 28 82 49 l74 37 3 52 c4 68 -19 113 -104
202 -89 95 -133 115 -252 116 -51 1 -95 -1 -97 -3z"/>
<path d="M2523 1416 c-97 -45 -172 -170 -220 -364 -24 -95 -27 -127 -27 -282
0 -247 35 -402 124 -538 97 -150 235 -182 345 -81 127 117 198 338 198 614 1
268 -69 489 -190 607 -73 71 -143 84 -230 44z m111 -562 c23 -22 20 -39 -13
-76 -15 -18 -30 -40 -33 -47 -3 -12 -6 -12 -11 2 -4 10 3 28 19 47 14 16 24
38 22 47 -5 25 -39 29 -55 7 -12 -17 -13 -17 -13 3 0 34 56 45 84 17z m-24
-169 c0 -8 -6 -15 -14 -15 -17 0 -28 14 -19 24 12 12 33 6 33 -9z"/>
</g>
</svg>
